<svg class="svg-icon" style="width: 1.173828125em; height: 1em;vertical-align: middle;fill: currentColor;overflow: hidden;" viewBox="0 0 1202 1024" version="1.1" xmlns="http://www.w3.org/2000/svg"><path d="M1185.144543 406.372174L619.406803 6.310957a34.148174 34.148174 0 0 0-39.513043 0L14.434282 406.372174a34.05913 34.05913 0 0 0-8.125218 47.560348 34.170435 34.170435 0 0 0 47.638261 8.125217l33.346783-23.507478v546.125913a34.29287 34.29287 0 0 0 34.181565 34.137043h341.570783a34.29287 34.29287 0 0 0 34.192695-34.137043v-307.2h204.822261v306.921739a34.29287 34.29287 0 0 0 34.192696 34.137044h341.570782a34.29287 34.29287 0 0 0 34.181566-34.137044V438.28313l33.346782 23.496348a33.892174 33.892174 0 0 0 19.611826 6.155131c10.651826 0 21.303652-5.030957 28.026435-14.269218a33.714087 33.714087 0 0 0-7.846956-47.282087zM1043.921586 950.294261H770.713934V643.361391a34.29287 34.29287 0 0 0-34.181565-34.137043H463.324717a34.29287 34.29287 0 0 0-34.170435 34.137043v306.921739H155.657238V390.15513L599.794977 75.965217l444.126609 314.189913v560.128z" fill="#2E323F" /></svg>